<svg width="484" height="425" viewBox="0 0 484 425" fill="none" xmlns="http://www.w3.org/2000/svg">
<path fill-rule="evenodd" clip-rule="evenodd" d="M263.194 12.5C253.572 -4.16666 229.516 -4.16667 219.893 12.5L156.74 121.884C181.862 107.94 210.776 100 241.544 100C272.312 100 301.225 107.94 326.347 121.884L263.194 12.5ZM416.518 278.064C415.447 340.443 381.737 394.87 331.734 425H458.05C477.295 425 489.323 404.167 479.701 387.5L416.518 278.064ZM151.354 425C101.35 394.87 67.6408 340.443 66.5702 278.063L3.38666 387.5C-6.23584 404.167 5.79228 425 25.0373 425H151.354Z" fill="white"/>
<path d="M126.813 272.439C126.813 248.153 134.501 224.491 148.776 204.843C163.051 185.196 183.179 170.572 206.276 163.067C229.373 155.562 254.253 155.562 277.35 163.067C300.447 170.572 320.575 185.196 334.85 204.843C349.124 224.491 356.813 248.153 356.813 272.439C356.813 296.724 349.124 320.386 334.85 340.034C320.575 359.681 300.447 374.305 277.35 381.81C254.253 389.315 229.373 389.315 206.276 381.81" stroke="white" stroke-width="10"/>
<path d="M336.811 272.439C336.811 293.778 329.627 314.495 316.416 331.253C303.206 348.011 284.738 359.833 263.989 364.814C243.239 369.796 221.417 367.646 202.039 358.713C182.66 349.779 166.853 334.581 157.166 315.568C147.478 296.555 144.474 274.834 148.637 253.906C152.8 232.977 163.888 214.059 180.114 200.201C196.34 186.342 216.759 178.35 238.082 177.512C259.404 176.675 280.387 183.04 297.651 195.583" stroke="white" stroke-width="10"/>
<rect width="10" height="150" transform="matrix(1 0 0 -1 237.811 284.439)" fill="white"/>
<rect x="214.811" y="218.439" width="10" height="75" transform="rotate(-30 214.811 218.439)" fill="white"/>
</svg>
